<svg width="30" height="30" viewBox="0 0 30 30" fill="none" xmlns="http://www.w3.org/2000/svg">
<path d="M8.50694 27C7.8188 27 7.22971 26.7552 6.73968 26.2656C6.24964 25.776 6.00462 25.1875 6.00462 24.5C6.00462 23.8125 6.24964 23.224 6.73968 22.7344C7.22971 22.2448 7.8188 22 8.50694 22C9.19507 22 9.78416 22.2448 10.2742 22.7344C10.7642 23.224 11.0092 23.8125 11.0092 24.5C11.0092 25.1875 10.7642 25.776 10.2742 26.2656C9.78416 26.7552 9.19507 27 8.50694 27ZM21.0185 27C20.3304 27 19.7413 26.7552 19.2512 26.2656C18.7612 25.776 18.5162 25.1875 18.5162 24.5C18.5162 23.8125 18.7612 23.224 19.2512 22.7344C19.7413 22.2448 20.3304 22 21.0185 22C21.7066 22 22.2957 22.2448 22.7858 22.7344C23.2758 23.224 23.5208 23.8125 23.5208 24.5C23.5208 25.1875 23.2758 25.776 22.7858 26.2656C22.2957 26.7552 21.7066 27 21.0185 27ZM7.44345 7L10.4462 13.25H19.2043L22.645 7H7.44345ZM6.25486 4.5H24.7094C25.189 4.5 25.5539 4.71354 25.8042 5.14062C26.0544 5.56771 26.0648 6 25.8354 6.4375L21.3938 14.4375C21.1645 14.8542 20.8569 15.1771 20.4711 15.4062C20.0853 15.6354 19.6631 15.75 19.2043 15.75H9.88321L8.50694 18.25H23.5208V20.75H8.50694C7.56857 20.75 6.85958 20.3385 6.37997 19.5156C5.90036 18.6927 5.87951 17.875 6.31741 17.0625L8.00647 14L3.50231 4.5H1V2H5.06626L6.25486 4.5Z" fill="#D8D3C5"/>
</svg>
