<svg width="30" height="30" viewBox="0 0 30 30" fill="none" xmlns="http://www.w3.org/2000/svg">
<path d="M15.5 26L13.6875 24.3706C11.5833 22.4696 9.84375 20.8297 8.46875 19.451C7.09375 18.0722 6 16.8345 5.1875 15.7377C4.375 14.641 3.80729 13.6331 3.48438 12.7139C3.16146 11.7947 3 10.8547 3 9.89373C3 7.93006 3.65625 6.29019 4.96875 4.97411C6.28125 3.65804 7.91667 3 9.875 3C10.9583 3 11.9896 3.22979 12.9688 3.68937C13.9479 4.14896 14.7917 4.79655 15.5 5.63215C16.2083 4.79655 17.0521 4.14896 18.0312 3.68937C19.0104 3.22979 20.0417 3 21.125 3C23.0833 3 24.7188 3.65804 26.0312 4.97411C27.3438 6.29019 28 7.93006 28 9.89373C28 10.8547 27.8385 11.7947 27.5156 12.7139C27.1927 13.6331 26.625 14.641 25.8125 15.7377C25 16.8345 23.9062 18.0722 22.5312 19.451C21.1562 20.8297 19.4167 22.4696 17.3125 24.3706L15.5 26ZM15.5 22.6158C17.5 20.8193 19.1458 19.2786 20.4375 17.9939C21.7292 16.7091 22.75 15.5915 23.5 14.641C24.25 13.6905 24.7708 12.8445 25.0625 12.1029C25.3542 11.3613 25.5 10.6249 25.5 9.89373C25.5 8.64033 25.0833 7.59582 24.25 6.76022C23.4167 5.92461 22.375 5.50681 21.125 5.50681C20.1458 5.50681 19.2396 5.78361 18.4062 6.33719C17.5729 6.89078 17 7.59582 16.6875 8.45232H14.3125C14 7.59582 13.4271 6.89078 12.5938 6.33719C11.7604 5.78361 10.8542 5.50681 9.875 5.50681C8.625 5.50681 7.58333 5.92461 6.75 6.76022C5.91667 7.59582 5.5 8.64033 5.5 9.89373C5.5 10.6249 5.64583 11.3613 5.9375 12.1029C6.22917 12.8445 6.75 13.6905 7.5 14.641C8.25 15.5915 9.27083 16.7091 10.5625 17.9939C11.8542 19.2786 13.5 20.8193 15.5 22.6158Z" fill="#D8D3C5"/>
</svg>
