<svg width="30" height="30" viewBox="0 0 30 30" fill="none" xmlns="http://www.w3.org/2000/svg">
<path fill-rule="evenodd" clip-rule="evenodd" d="M12.825 26.8484L15 28.8192L17.175 26.8484C19.7 24.5491 21.7875 22.5656 23.4375 20.8979C25.0875 19.2303 26.4 17.7332 27.375 16.4067C28.35 15.0802 29.0313 13.861 29.4188 12.7493C29.8063 11.6375 30 10.5005 30 9.33818C30 6.96306 29.2125 4.97959 27.6375 3.38775C26.0625 1.79592 24.1 1 21.75 1C20.45 1 19.2125 1.27794 18.0375 1.83382C16.8625 2.3897 15.85 3.17298 15 4.18367C14.15 3.17298 13.1375 2.3897 11.9625 1.83382C10.7875 1.27794 9.55 1 8.25 1C5.9 1 3.9375 1.79592 2.3625 3.38775C0.7875 4.97959 0 6.96306 0 9.33818C0 10.5005 0.19375 11.6375 0.58125 12.7493C0.96875 13.861 1.65 15.0802 2.625 16.4067C3.6 17.7332 4.9125 19.2303 6.5625 20.8979C8.2125 22.5656 10.3 24.5491 12.825 26.8484Z" fill="black"/>
</svg>
