<svg width="30" height="28" viewBox="0 0 30 28" fill="none" xmlns="http://www.w3.org/2000/svg">
<path d="M15 28L12.825 26.0163C10.3 23.7021 8.2125 21.7057 6.5625 20.0272C4.9125 18.3488 3.6 16.842 2.625 15.5068C1.65 14.1717 0.96875 12.9446 0.58125 11.8256C0.19375 10.7066 0 9.56222 0 8.39237C0 6.00182 0.7875 4.00545 2.3625 2.40327C3.9375 0.80109 5.9 0 8.25 0C9.55 0 10.7875 0.279746 11.9625 0.839237C13.1375 1.39873 14.15 2.1871 15 3.20436C15.85 2.1871 16.8625 1.39873 18.0375 0.839237C19.2125 0.279746 20.45 0 21.75 0C24.1 0 26.0625 0.80109 27.6375 2.40327C29.2125 4.00545 30 6.00182 30 8.39237C30 9.56222 29.8063 10.7066 29.4188 11.8256C29.0313 12.9446 28.35 14.1717 27.375 15.5068C26.4 16.842 25.0875 18.3488 23.4375 20.0272C21.7875 21.7057 19.7 23.7021 17.175 26.0163L15 28ZM15 23.8801C17.4 21.693 19.375 19.8174 20.925 18.2534C22.475 16.6894 23.7 15.3288 24.6 14.1717C25.5 13.0145 26.125 11.9846 26.475 11.0817C26.825 10.1789 27 9.28247 27 8.39237C27 6.86649 26.5 5.59491 25.5 4.57766C24.5 3.5604 23.25 3.05177 21.75 3.05177C20.575 3.05177 19.4875 3.38874 18.4875 4.06267C17.4875 4.7366 16.8 5.59491 16.425 6.6376H13.575C13.2 5.59491 12.5125 4.7366 11.5125 4.06267C10.5125 3.38874 9.425 3.05177 8.25 3.05177C6.75 3.05177 5.5 3.5604 4.5 4.57766C3.5 5.59491 3 6.86649 3 8.39237C3 9.28247 3.175 10.1789 3.525 11.0817C3.875 11.9846 4.5 13.0145 5.4 14.1717C6.3 15.3288 7.525 16.6894 9.075 18.2534C10.625 19.8174 12.6 21.693 15 23.8801Z" fill="#D8CDC5"/>
</svg>
