<svg width="30" height="30" viewBox="0 0 30 30" fill="none" xmlns="http://www.w3.org/2000/svg">
<path d="M6.8125 20.875C7.875 20.0625 9.0625 19.4219 10.375 18.9531C11.6875 18.4844 13.0625 18.25 14.5 18.25C15.9375 18.25 17.3125 18.4844 18.625 18.9531C19.9375 19.4219 21.125 20.0625 22.1875 20.875C22.9167 20.0208 23.4844 19.0521 23.8906 17.9687C24.2969 16.8854 24.5 15.7292 24.5 14.5C24.5 11.7292 23.526 9.36979 21.5781 7.42187C19.6302 5.47396 17.2708 4.5 14.5 4.5C11.7292 4.5 9.36979 5.47396 7.42187 7.42187C5.47396 9.36979 4.5 11.7292 4.5 14.5C4.5 15.7292 4.70312 16.8854 5.10937 17.9687C5.51562 19.0521 6.08333 20.0208 6.8125 20.875ZM14.5 15.75C13.2708 15.75 12.2344 15.3281 11.3906 14.4844C10.5469 13.6406 10.125 12.6042 10.125 11.375C10.125 10.1458 10.5469 9.10937 11.3906 8.26562C12.2344 7.42187 13.2708 7 14.5 7C15.7292 7 16.7656 7.42187 17.6094 8.26562C18.4531 9.10937 18.875 10.1458 18.875 11.375C18.875 12.6042 18.4531 13.6406 17.6094 14.4844C16.7656 15.3281 15.7292 15.75 14.5 15.75ZM14.5 27C12.7708 27 11.1458 26.6719 9.625 26.0156C8.10417 25.3594 6.78125 24.4687 5.65625 23.3437C4.53125 22.2187 3.64062 20.8958 2.98437 19.375C2.32812 17.8542 2 16.2292 2 14.5C2 12.7708 2.32812 11.1458 2.98437 9.625C3.64062 8.10417 4.53125 6.78125 5.65625 5.65625C6.78125 4.53125 8.10417 3.64062 9.625 2.98437C11.1458 2.32812 12.7708 2 14.5 2C16.2292 2 17.8542 2.32812 19.375 2.98437C20.8958 3.64062 22.2187 4.53125 23.3437 5.65625C24.4687 6.78125 25.3594 8.10417 26.0156 9.625C26.6719 11.1458 27 12.7708 27 14.5C27 16.2292 26.6719 17.8542 26.0156 19.375C25.3594 20.8958 24.4687 22.2187 23.3437 23.3437C22.2187 24.4687 20.8958 25.3594 19.375 26.0156C17.8542 26.6719 16.2292 27 14.5 27ZM14.5 24.5C15.6042 24.5 16.6458 24.3385 17.625 24.0156C18.6042 23.6927 19.5 23.2292 20.3125 22.625C19.5 22.0208 18.6042 21.5573 17.625 21.2344C16.6458 20.9115 15.6042 20.75 14.5 20.75C13.3958 20.75 12.3542 20.9115 11.375 21.2344C10.3958 21.5573 9.5 22.0208 8.6875 22.625C9.5 23.2292 10.3958 23.6927 11.375 24.0156C12.3542 24.3385 13.3958 24.5 14.5 24.5ZM14.5 13.25C15.0417 13.25 15.4896 13.0729 15.8437 12.7187C16.1979 12.3646 16.375 11.9167 16.375 11.375C16.375 10.8333 16.1979 10.3854 15.8437 10.0312C15.4896 9.67708 15.0417 9.5 14.5 9.5C13.9583 9.5 13.5104 9.67708 13.1562 10.0312C12.8021 10.3854 12.625 10.8333 12.625 11.375C12.625 11.9167 12.8021 12.3646 13.1562 12.7187C13.5104 13.0729 13.9583 13.25 14.5 13.25Z" fill="#D8D3C5"/>
</svg>
