<svg width="30" height="30" viewBox="0 0 30 30" fill="none" xmlns="http://www.w3.org/2000/svg">
<path d="M25.2111 27L17.1611 18.95C16.5222 19.4611 15.7875 19.8657 14.9569 20.1639C14.1264 20.462 13.2426 20.6111 12.3056 20.6111C9.98426 20.6111 8.01968 19.8072 6.41181 18.1993C4.80394 16.5914 4 14.6269 4 12.3056C4 9.98426 4.80394 8.01968 6.41181 6.41181C8.01968 4.80394 9.98426 4 12.3056 4C14.6269 4 16.5914 4.80394 18.1993 6.41181C19.8072 8.01968 20.6111 9.98426 20.6111 12.3056C20.6111 13.2426 20.462 14.1264 20.1639 14.9569C19.8657 15.7875 19.4611 16.5222 18.95 17.1611L27 25.2111L25.2111 27ZM12.3056 18.0556C13.9028 18.0556 15.2604 17.4965 16.3785 16.3785C17.4965 15.2604 18.0556 13.9028 18.0556 12.3056C18.0556 10.7083 17.4965 9.35069 16.3785 8.23264C15.2604 7.11458 13.9028 6.55556 12.3056 6.55556C10.7083 6.55556 9.35069 7.11458 8.23264 8.23264C7.11458 9.35069 6.55556 10.7083 6.55556 12.3056C6.55556 13.9028 7.11458 15.2604 8.23264 16.3785C9.35069 17.4965 10.7083 18.0556 12.3056 18.0556Z" fill="#D8D3C5"/>
</svg>
